<?xml version="1.0" encoding="utf-8"?>
<!-- Generator: Adobe Illustrator 24.0.1, SVG Export Plug-In . SVG Version: 6.00 Build 0)  -->
<svg version="1.1" id="圖層_1" xmlns="http://www.w3.org/2000/svg" xmlns:xlink="http://www.w3.org/1999/xlink" x="0px" y="0px"
	 viewBox="0 0 12 12" style="enable-background:new 0 0 12 12;" xml:space="preserve">
<style type="text/css">
	.st0{fill:none;}
	.st1{fill:#FFFFFF;}
</style>
<g>
	<path class="st0" d="M12,0v12H0V0H12z M6.3,11.6L6.3,11.6L6.3,11.6L6.3,11.6L6.3,11.6L6.3,11.6c-0.1,0-0.1,0-0.1,0l0,0l0,0.2l0,0
		l0,0l0.1,0l0,0l0,0l0.1,0l0,0l0,0L6.3,11.6C6.3,11.6,6.3,11.6,6.3,11.6 M6.4,11.6L6.4,11.6L6.4,11.6l-0.1,0.1l0,0l0,0.2l0,0l0,0
		l0.1,0c0,0,0,0,0,0l0,0L6.4,11.6C6.4,11.6,6.4,11.6,6.4,11.6 M6.1,11.6C6.1,11.6,6.1,11.6,6.1,11.6L6.1,11.6l0,0.3c0,0,0,0,0,0l0,0
		l0.1,0l0,0l0,0L6.1,11.6L6.1,11.6L6.1,11.6L6.1,11.6z"/>
	<path class="st1" d="M9,4.5c0.8,0,1.5,0.6,1.5,1.4l0,0.1v1.5c0,0.3-0.2,0.6-0.4,0.7l-0.1,0V10c0,0.5-0.4,1-0.9,1L9,11H3
		c-0.5,0-1-0.4-1-0.9L2,10V8.2C1.7,8.1,1.5,7.9,1.5,7.6l0-0.1V6c0-0.8,0.6-1.5,1.4-1.5l0.1,0H9z M9,7.8c-0.2-0.1-0.4-0.1-0.5,0
		l-0.1,0L8.2,7.9C7.7,8.3,7,8.4,6.5,8L6.4,8L6.3,7.9c-0.2-0.1-0.4-0.1-0.5,0l-0.1,0L5.6,8C5.1,8.3,4.4,8.4,3.9,8L3.8,8L3.6,7.9
		c-0.2-0.1-0.4-0.1-0.5,0L3,7.9l0,0V10h6L9,7.8L9,7.8z M9,5.5H3C2.7,5.5,2.5,5.7,2.5,6v1c0.5-0.4,1.2-0.3,1.7,0l0.1,0.1
		c0.2,0.1,0.4,0.1,0.6,0l0.1-0.1c0.5-0.4,1.3-0.4,1.8,0L7,7.2c0.2,0.1,0.4,0.1,0.6,0l0.1-0.1C8.3,6.7,9,6.6,9.5,7V6
		C9.5,5.7,9.3,5.5,9,5.5 M6.3,1.1c0.2,0.2,0.4,0.3,0.6,0.5C7.1,1.9,7.5,2.4,7.5,3c0,0.8-0.7,1.5-1.5,1.5S4.5,3.8,4.5,3
		c0-0.6,0.4-1.1,0.6-1.4c0.2-0.2,0.4-0.4,0.6-0.5C5.9,1,6.1,1,6.3,1.1 M6,2.2c0,0-0.1,0.1-0.1,0.1C5.6,2.6,5.5,2.8,5.5,3
		c0,0.3,0.2,0.5,0.5,0.5S6.5,3.3,6.5,3c0-0.2-0.1-0.4-0.4-0.7C6.1,2.3,6,2.2,6,2.2"/>
</g>
</svg>
