<?xml version="1.0" encoding="utf-8"?>
<!-- Generator: Adobe Illustrator 24.0.1, SVG Export Plug-In . SVG Version: 6.00 Build 0)  -->
<svg version="1.1" id="圖層_1" xmlns="http://www.w3.org/2000/svg" xmlns:xlink="http://www.w3.org/1999/xlink" x="0px" y="0px"
	 viewBox="0 0 24 24" style="enable-background:new 0 0 24 24;" xml:space="preserve">
<style type="text/css">
	.st0{fill:none;}
	.st1{fill:#FFFFFF;}
</style>
<g>
	<path class="st0" d="M24,0v24H0V0H24z M12.6,23.3L12.6,23.3L12.6,23.3l-0.1,0l0,0l-0.1,0c0,0,0,0,0,0l0,0l0,0.4l0,0l0,0l0.1,0.1
		l0,0l0,0l0.1-0.1l0,0l0,0L12.6,23.3C12.6,23.3,12.6,23.3,12.6,23.3 M12.9,23.1L12.9,23.1l-0.2,0.1l0,0l0,0l0,0.4l0,0l0,0l0.2,0.1
		c0,0,0,0,0,0l0,0L12.9,23.1C12.9,23.2,12.9,23.1,12.9,23.1 M12.1,23.1C12.1,23.1,12.1,23.1,12.1,23.1L12.1,23.1l-0.1,0.6
		c0,0,0,0,0,0l0,0l0.2-0.1l0,0l0,0l0-0.4l0,0l0,0L12.1,23.1z"/>
	<path class="st1" d="M10.8,2.7c0.7-0.5,1.6-0.6,2.3-0.1l0.1,0.1l8.4,6.5c0.7,0.6,0.4,1.7-0.5,1.8L21,11h-1v8c0,1-0.8,1.9-1.9,2
		L18,21H6c-1,0-1.9-0.8-2-1.9L4,19v-8H3c-0.9,0-1.3-1.1-0.7-1.7l0.1-0.1L10.8,2.7z M12,4.3l-6.4,5C5.9,9.4,6,9.7,6,10v9h3v-5
		c0-1.7,1.3-3,3-3s3,1.3,3,3v5h3v-9c0-0.3,0.1-0.6,0.4-0.8L12,4.3z M12,13c-0.6,0-1,0.4-1,1v5h2v-5C13,13.4,12.6,13,12,13"/>
</g>
</svg>
