<?xml version="1.0" encoding="utf-8"?>
<!-- Generator: Adobe Illustrator 24.0.1, SVG Export Plug-In . SVG Version: 6.00 Build 0)  -->
<svg version="1.1" id="圖層_1" xmlns="http://www.w3.org/2000/svg" xmlns:xlink="http://www.w3.org/1999/xlink" x="0px" y="0px"
	 viewBox="0 0 24 24" style="enable-background:new 0 0 24 24;" xml:space="preserve">
<style type="text/css">
	.st0{fill:none;}
	.st1{fill:#FFFFFF;}
</style>
<g>
	<path class="st0" d="M24,0v24H0V0H24z M12.6,23.3L12.6,23.3L12.6,23.3l-0.1,0l0,0l-0.1,0c0,0,0,0,0,0l0,0l0,0.4l0,0l0,0l0.1,0.1
		l0,0l0,0l0.1-0.1l0,0l0,0L12.6,23.3C12.6,23.3,12.6,23.3,12.6,23.3 M12.9,23.1L12.9,23.1l-0.2,0.1l0,0l0,0l0,0.4l0,0l0,0l0.2,0.1
		c0,0,0,0,0,0l0,0L12.9,23.1C12.9,23.2,12.9,23.1,12.9,23.1 M12.1,23.1C12.1,23.1,12.1,23.1,12.1,23.1L12.1,23.1l-0.1,0.6
		c0,0,0,0,0,0l0,0l0.2-0.1l0,0l0,0l0-0.4l0,0l0,0L12.1,23.1z"/>
	<path class="st1" d="M11.1,2.5c0.5-0.4,1.2-0.4,1.8-0.1l0.1,0.1l4.3,3.5c0.4,0.3,0.7,0.8,0.7,1.4l0,0.2V10h2c1,0,1.9,0.8,2,1.9
		l0,0.1v7.9c0,0.6-0.4,1-1,1.1l-0.1,0H3.1c-0.6,0-1-0.4-1.1-1l0-0.1V12c0-1,0.8-1.9,1.8-2L4,10h2V7.5C6,6.9,6.2,6.4,6.6,6l0.1-0.1
		L11.1,2.5z M12,4.3L8,7.5V19h8V7.5L12,4.3z M20,12h-2v7h2V12z M6,12H4v7h2V12z M12,8c1.7,0,3,1.3,3,3s-1.3,3-3,3s-3-1.3-3-3
		S10.3,8,12,8 M12,10c-0.6,0-1,0.4-1,1s0.4,1,1,1s1-0.4,1-1S12.6,10,12,10"/>
</g>
</svg>
