<?xml version="1.0" encoding="utf-8"?>
<!-- Generator: Adobe Illustrator 24.0.1, SVG Export Plug-In . SVG Version: 6.00 Build 0)  -->
<svg version="1.1" id="圖層_1" xmlns="http://www.w3.org/2000/svg" xmlns:xlink="http://www.w3.org/1999/xlink" x="0px" y="0px"
	 viewBox="0 0 24 24" style="enable-background:new 0 0 24 24;" xml:space="preserve">
<style type="text/css">
	.st0{fill:none;}
	.st1{fill:#FFFFFF;}
</style>
<path class="st0" d="M24,0v24H0V0H24z M12.6,23.3L12.6,23.3L12.6,23.3l-0.1,0l0,0l-0.1,0c0,0,0,0,0,0l0,0l0,0.4l0,0l0,0l0.1,0.1l0,0
	l0,0l0.1-0.1l0,0l0,0L12.6,23.3C12.6,23.3,12.6,23.3,12.6,23.3 M12.9,23.1L12.9,23.1l-0.2,0.1l0,0l0,0l0,0.4l0,0l0,0l0.2,0.1
	c0,0,0,0,0,0l0,0L12.9,23.1C12.9,23.2,12.9,23.1,12.9,23.1 M12.1,23.1C12.1,23.1,12.1,23.1,12.1,23.1L12.1,23.1l-0.1,0.6
	c0,0,0,0,0,0l0,0l0.2-0.1l0,0l0,0l0-0.4l0,0l0,0L12.1,23.1z"/>
<path class="st1" d="M12,0c6.6,0,12,5.4,12,12s-5.4,12-12,12S0,18.6,0,12S5.4,0,12,0 M14.4,13.7l-1.9,1.5c-0.3,0.2-0.3,0.6-0.1,0.8
	c0,0,0,0,0,0l1.5,1.5c0.3,0.3,0.5,0.6,0.6,1l0.2,0.7c0.2,0.6,0.6,1.1,1.2,1.4c1.1-0.5,2.2-1.3,3-2.2l-0.3-2.3
	c-0.1-0.8-0.6-1.5-1.3-1.8l-1.8-0.9C15.3,13.3,14.8,13.4,14.4,13.7 M12,2.4c-3,0-5.8,1.4-7.6,3.7L4.2,6.4v2c0,1.5,0.9,2.8,2.3,3.4
	l0.2,0.1l1.5,0.5c1.6,0.5,3.3-0.8,3.1-2.5l0-0.2l-0.2-1.3c-0.1-0.6,0.2-1.1,0.8-1.3l0.1,0l0.7-0.2c1.7-0.4,2.8-2.1,2.4-3.8
	c0,0,0-0.1,0-0.1C14.2,2.6,13.1,2.4,12,2.4"/>
</svg>
