<?xml version="1.0" encoding="utf-8"?>
<!-- Generator: Adobe Illustrator 24.0.1, SVG Export Plug-In . SVG Version: 6.00 Build 0)  -->
<svg version="1.1" id="圖層_1" xmlns="http://www.w3.org/2000/svg" xmlns:xlink="http://www.w3.org/1999/xlink" x="0px" y="0px"
	 viewBox="0 0 24 24" style="enable-background:new 0 0 24 24;" xml:space="preserve">
<style type="text/css">
	.st0{fill:#EA526F;}
</style>
<path class="st0" d="M6.6,0.4c0.9,0.3,1.8,0.7,2.5,1.3c1.1-0.3,2.3-0.4,3.4-0.4c1.2,0,2.3,0.1,3.4,0.4c0.8-0.5,1.6-0.9,2.5-1.3
	c0.8-0.3,2-0.7,2.7,0c0.5,0.5,0.6,1.4,0.7,2.1c0.1,0.8,0.1,1.8-0.1,2.7c1,1.2,1.5,2.7,1.5,4.3c0,2.4-1.3,4.6-3.3,6
	c-0.9,0.7-2,1.2-3.1,1.6c0.3,0.6,0.4,1.2,0.4,1.9v3.6c0,0.7-0.5,1.2-1.2,1.2H9c-0.7,0-1.2-0.5-1.2-1.2v-1.2c-1.1,0.1-2.1,0-2.9-0.3
	C4,20.9,3.5,20.3,3,19.8c-0.4-0.5-0.9-1.7-1.6-1.9c-0.6-0.2-1-0.9-0.8-1.5c0.2-0.6,0.9-1,1.5-0.8c0.8,0.3,1.3,0.8,1.7,1.3
	c0.6,0.7,1,1.7,1.9,2.1c0.4,0.2,0.9,0.3,1.8,0.1l0.2,0c0-0.7,0.1-1.3,0.4-1.9c-1.1-0.4-2.2-0.9-3.1-1.6c-2-1.5-3.3-3.6-3.3-6
	c0-1.6,0.6-3.1,1.5-4.3c-0.3-1-0.2-2-0.1-2.7l0,0c0.1-0.7,0.2-1.5,0.7-2.1C4.6-0.4,5.8,0.1,6.6,0.4L6.6,0.4z"/>
</svg>
